<svg width="501" height="258" viewBox="0 0 501 258" fill="none" xmlns="http://www.w3.org/2000/svg">
<g opacity="0.52">
<path d="M215.27 115.017H20.2177C12.6802 115.017 6.51367 108.851 6.51367 101.313C6.51367 93.7771 12.6802 87.6094 20.2177 87.6094H215.27C222.807 87.6094 228.974 93.7759 228.974 101.313C228.973 108.851 222.806 115.017 215.27 115.017Z" fill="#7269EE"/>
<path d="M489.889 93.5116H331.729C325.618 93.5116 320.617 88.511 320.617 82.4001C320.617 76.2892 325.618 71.2886 331.729 71.2886H489.889C495.999 71.2886 501 76.2892 501 82.4001C501 88.511 495.999 93.5116 489.889 93.5116Z" fill="#7269EE"/>
<path d="M450.006 65.0583H352.48C348.712 65.0583 345.629 61.9756 345.629 58.2069C345.629 54.4382 348.712 51.3555 352.48 51.3555H450.006C453.775 51.3555 456.858 54.4393 456.858 58.2069C456.858 61.9756 453.775 65.0583 450.006 65.0583Z" fill="#7269EE"/>
<path d="M445.776 167.122H348.25C344.481 167.122 341.398 164.038 341.398 160.27C341.398 156.502 344.481 153.419 348.25 153.419H445.776C449.545 153.419 452.627 156.503 452.627 160.27C452.629 164.038 449.545 167.122 445.776 167.122Z" fill="#7269EE"/>
<path d="M434.934 220.246H337.408C333.639 220.246 330.557 217.162 330.557 213.394C330.557 209.626 333.64 206.543 337.408 206.543H434.934C438.703 206.543 441.786 209.626 441.786 213.394C441.786 217.163 438.703 220.246 434.934 220.246Z" fill="#7269EE"/>
<path d="M153.665 78.1403H56.1385C52.3698 78.1403 49.2871 75.0565 49.2871 71.2889C49.2871 67.5202 52.3709 64.4375 56.1385 64.4375H153.665C157.433 64.4375 160.516 67.5213 160.516 71.2889C160.516 75.0565 157.432 78.1403 153.665 78.1403Z" fill="#7269EE"/>
<path d="M199.649 154.947H50.4448C44.1648 154.947 39.0273 149.81 39.0273 143.53C39.0273 137.25 44.1659 132.112 50.4448 132.112H199.649C205.929 132.112 211.066 137.251 211.066 143.53C211.066 149.81 205.929 154.947 199.649 154.947Z" fill="#7269EE"/>
<path d="M160.621 173.651H11.4175C5.13741 173.651 0 168.513 0 162.234C0 155.954 5.13857 150.816 11.4175 150.816H160.621C166.901 150.816 172.039 155.955 172.039 162.234C172.04 168.514 166.901 173.651 160.621 173.651Z" fill="#7269EE"/>
<path d="M454.856 196.168H305.652C299.372 196.168 294.234 191.029 294.234 184.751C294.234 178.47 299.373 173.333 305.652 173.333H454.856C461.136 173.333 466.273 178.472 466.273 184.751C466.273 191.031 461.136 196.168 454.856 196.168Z" fill="#7269EE"/>
<path d="M457.633 147.7H308.429C302.149 147.7 297.012 142.561 297.012 136.282C297.012 130.002 302.15 124.865 308.429 124.865H457.633C463.913 124.865 469.051 130.003 469.051 136.282C469.052 142.562 463.913 147.7 457.633 147.7Z" fill="#7269EE"/>
<path d="M196.905 216.711H47.7007C41.4206 216.711 36.2832 211.572 36.2832 205.293C36.2832 199.013 41.4218 193.876 47.7007 193.876H196.905C203.185 193.876 208.322 199.015 208.322 205.293C208.322 211.574 203.183 216.711 196.905 216.711Z" fill="#7269EE"/>
</g>
<path d="M113.725 122.253H135.291" stroke="#1C1C1C" stroke-width="2.31873" stroke-miterlimit="10" stroke-linecap="round" stroke-linejoin="round"/>
<path d="M117.529 128.518H139.095" stroke="#1C1C1C" stroke-width="2.31873" stroke-miterlimit="10" stroke-linecap="round" stroke-linejoin="round"/>
<path d="M197.865 101.852H219.431" stroke="#1C1C1C" stroke-width="2.31873" stroke-miterlimit="10" stroke-linecap="round" stroke-linejoin="round"/>
<path d="M193.822 109.551H215.388" stroke="#1C1C1C" stroke-width="2.31873" stroke-miterlimit="10" stroke-linecap="round" stroke-linejoin="round"/>
<path d="M224.52 183.46H246.086" stroke="#1C1C1C" stroke-width="2.31873" stroke-miterlimit="10" stroke-linecap="round" stroke-linejoin="round"/>
<path d="M264.453 179.227H286.019" stroke="#1C1C1C" stroke-width="2.31873" stroke-miterlimit="10" stroke-linecap="round" stroke-linejoin="round"/>
<path d="M329.328 216.815H350.894" stroke="#1C1C1C" stroke-width="2.31873" stroke-miterlimit="10" stroke-linecap="round" stroke-linejoin="round"/>
<path d="M331.25 223.119H352.816" stroke="#1C1C1C" stroke-width="2.31873" stroke-miterlimit="10" stroke-linecap="round" stroke-linejoin="round"/>
<path d="M390.922 93.3828H412.488" stroke="#1C1C1C" stroke-width="2.31873" stroke-miterlimit="10" stroke-linecap="round" stroke-linejoin="round"/>
<path d="M275.793 82.604H297.359" stroke="#1C1C1C" stroke-width="2.31873" stroke-miterlimit="10" stroke-linecap="round" stroke-linejoin="round"/>
<path d="M272.73 87.9932H294.296" stroke="#1C1C1C" stroke-width="2.31873" stroke-miterlimit="10" stroke-linecap="round" stroke-linejoin="round"/>
<path d="M382.139 98.0029H403.705" stroke="#1C1C1C" stroke-width="2.31873" stroke-miterlimit="10" stroke-linecap="round" stroke-linejoin="round"/>
<path d="M218.279 188.465H239.845" stroke="#1C1C1C" stroke-width="2.31873" stroke-miterlimit="10" stroke-linecap="round" stroke-linejoin="round"/>
<path d="M188.504 33.5726H209.014C210.758 33.5726 211.997 33.9856 212.731 34.8115C213.557 35.5456 213.97 36.7845 213.97 38.5281V91.9371C213.97 94.8737 213.832 97.6267 213.557 100.196C213.373 102.674 212.685 105.611 211.492 109.006L204.609 127.727C204.15 129.103 203.462 130.296 202.545 131.306C201.719 132.223 200.571 132.682 199.103 132.682H180.795C179.327 132.682 177.997 132.361 176.804 131.719C175.611 131.076 174.831 130.021 174.463 128.553L168.131 106.115C167.856 105.198 167.489 104.601 167.03 104.326C166.663 103.959 166.204 103.775 165.654 103.775H164.415C163.864 103.775 163.36 103.959 162.901 104.326C162.534 104.601 162.212 105.198 161.937 106.115L155.467 128.553C155.1 129.929 154.412 130.984 153.403 131.719C152.393 132.361 151.154 132.682 149.686 132.682H131.516C130.048 132.682 128.763 132.223 127.662 131.306C126.652 130.388 125.918 129.195 125.459 127.727L118.577 108.731C117.384 105.335 116.65 102.399 116.374 99.9209C116.191 97.3514 116.099 94.5984 116.099 91.6618V38.5281C116.099 36.7845 116.466 35.5456 117.2 34.8115C118.026 33.9856 119.311 33.5726 121.054 33.5726H142.253C143.996 33.5726 145.235 33.9856 145.969 34.8115C146.795 35.5456 147.208 36.7845 147.208 38.5281V89.1841L155.192 71.8399C155.926 70.2798 156.89 69.1786 158.083 68.5362C159.276 67.8939 160.744 67.5727 162.488 67.5727H168.269C170.013 67.5727 171.481 67.8939 172.674 68.5362C173.867 69.1786 174.831 70.2798 175.565 71.8399L183.549 89.1841V38.5281C183.549 36.7845 183.916 35.5456 184.65 34.8115C185.476 33.9856 186.76 33.5726 188.504 33.5726ZM300.56 132.682H236.69C234.946 132.682 233.661 132.315 232.835 131.581C232.101 130.755 231.734 129.47 231.734 127.727V38.5281C231.734 36.7845 232.101 35.5456 232.835 34.8115C233.661 33.9856 234.946 33.5726 236.69 33.5726H300.56C302.304 33.5726 303.543 33.9856 304.277 34.8115C305.103 35.5456 305.516 36.7845 305.516 38.5281V54.6334C305.516 56.377 305.103 57.6617 304.277 58.4876C303.543 59.2218 302.304 59.5889 300.56 59.5889H262.568V70.1881H289.411C291.154 70.1881 292.393 70.601 293.127 71.4269C293.953 72.1611 294.366 73.4 294.366 75.1435V89.8723C294.366 91.6159 293.953 92.9007 293.127 93.7266C292.393 94.4607 291.154 94.8278 289.411 94.8278H262.568V106.666H300.56C302.304 106.666 303.543 107.079 304.277 107.905C305.103 108.639 305.516 109.878 305.516 111.621V127.727C305.516 129.47 305.103 130.755 304.277 131.581C303.543 132.315 302.304 132.682 300.56 132.682ZM379.614 132.682H326.755C325.012 132.682 323.727 132.315 322.901 131.581C322.167 130.755 321.8 129.47 321.8 127.727V38.5281C321.8 36.7845 322.167 35.5456 322.901 34.8115C323.727 33.9856 325.012 33.5726 326.755 33.5726H370.666C379.659 33.5726 386.313 35.3162 390.626 38.8034C394.939 42.1988 397.095 47.4755 397.095 54.6334V61.2407C397.095 65.0949 396.407 68.2609 395.031 70.7387C393.746 73.1246 391.727 74.9141 388.974 76.1071C394.847 76.6577 399.206 78.6766 402.051 82.1638C404.896 85.651 406.318 90.7441 406.318 97.4432V110.107C406.318 117.816 404.116 123.505 399.711 127.176C395.398 130.847 388.699 132.682 379.614 132.682ZM352.771 56.9735V71.8399H364.472C366.215 71.8399 367.5 71.381 368.326 70.4634C369.244 69.5457 369.703 68.1692 369.703 66.3338V62.4795C369.703 60.6442 369.244 59.2677 368.326 58.35C367.5 57.4323 366.215 56.9735 364.472 56.9735H352.771ZM352.771 93.0383V109.281H370.666C372.41 109.281 373.694 108.822 374.52 107.905C375.438 106.987 375.897 105.611 375.897 103.775V98.4068C375.897 96.5714 375.438 95.2408 374.52 94.4148C373.694 93.4972 372.41 93.0383 370.666 93.0383H352.771Z" fill="#1C1C1C"/>
<path d="M156.928 229.119H119.705C118.213 229.119 117.114 228.805 116.407 228.177C115.779 227.47 115.465 226.371 115.465 224.879V211.097C115.465 209.605 115.779 208.544 116.407 207.916C117.114 207.209 118.213 206.856 119.705 206.856H151.392C152.412 206.856 153.159 206.542 153.63 205.914C154.179 205.207 154.454 204.382 154.454 203.44C154.454 202.105 154.179 201.123 153.63 200.495C153.159 199.867 152.412 199.514 151.392 199.435L133.723 196.961C128.226 196.176 123.789 194.37 120.412 191.543C117.114 188.716 115.465 184.004 115.465 177.408V165.039C115.465 158.364 117.624 153.26 121.943 149.726C126.262 146.114 132.23 144.308 139.848 144.308H172.83C174.322 144.308 175.382 144.661 176.011 145.368C176.717 145.996 177.071 147.056 177.071 148.548V162.566C177.071 164.058 176.717 165.157 176.011 165.864C175.382 166.492 174.322 166.806 172.83 166.806H145.384C144.363 166.806 143.578 167.16 143.028 167.866C142.479 168.495 142.204 169.319 142.204 170.34C142.204 171.361 142.479 172.225 143.028 172.932C143.578 173.638 144.363 174.031 145.384 174.109L162.935 176.465C168.432 177.251 172.869 179.057 176.246 181.884C179.623 184.711 181.311 189.423 181.311 196.019V208.387C181.311 215.062 179.112 220.206 174.715 223.818C170.396 227.352 164.467 229.119 156.928 229.119ZM196.553 229.119C195.061 229.119 193.961 228.805 193.254 228.177C192.626 227.47 192.312 226.371 192.312 224.879V210.861C192.312 209.369 192.626 208.309 193.254 207.681C193.961 206.974 195.061 206.621 196.553 206.621H208.214V167.042H196.553C195.061 167.042 193.961 166.728 193.254 166.099C192.626 165.393 192.312 164.293 192.312 162.801V148.548C192.312 147.056 192.626 145.996 193.254 145.368C193.961 144.661 195.061 144.308 196.553 144.308H246.733C248.225 144.308 249.285 144.661 249.913 145.368C250.62 145.996 250.973 147.056 250.973 148.548V162.801C250.973 164.293 250.62 165.393 249.913 166.099C249.285 166.728 248.225 167.042 246.733 167.042H235.307V206.621H246.733C248.225 206.621 249.285 206.974 249.913 207.681C250.62 208.309 250.973 209.369 250.973 210.861V224.879C250.973 226.371 250.62 227.47 249.913 228.177C249.285 228.805 248.225 229.119 246.733 229.119H196.553ZM305.567 229.119H286.485C284.992 229.119 283.893 228.805 283.186 228.177C282.558 227.47 282.244 226.371 282.244 224.879V167.042H264.928C263.436 167.042 262.337 166.728 261.63 166.099C261.002 165.393 260.688 164.293 260.688 162.801V148.548C260.688 147.056 261.002 145.996 261.63 145.368C262.337 144.661 263.436 144.308 264.928 144.308H327.123C328.615 144.308 329.676 144.661 330.304 145.368C331.011 145.996 331.364 147.056 331.364 148.548V162.801C331.364 164.293 331.011 165.393 330.304 166.099C329.676 166.728 328.615 167.042 327.123 167.042H309.808V224.879C309.808 226.371 309.454 227.47 308.748 228.177C308.119 228.805 307.059 229.119 305.567 229.119ZM401.716 229.119H347.06C345.568 229.119 344.469 228.805 343.762 228.177C343.134 227.47 342.819 226.371 342.819 224.879V148.548C342.819 147.056 343.134 145.996 343.762 145.368C344.469 144.661 345.568 144.308 347.06 144.308H401.716C403.208 144.308 404.268 144.661 404.897 145.368C405.603 145.996 405.957 147.056 405.957 148.548V162.33C405.957 163.822 405.603 164.922 404.897 165.628C404.268 166.257 403.208 166.571 401.716 166.571H369.205V175.641H392.175C393.667 175.641 394.727 175.994 395.355 176.701C396.062 177.329 396.416 178.389 396.416 179.881V192.485C396.416 193.977 396.062 195.077 395.355 195.783C394.727 196.412 393.667 196.726 392.175 196.726H369.205V206.856H401.716C403.208 206.856 404.268 207.209 404.897 207.916C405.603 208.544 405.957 209.605 405.957 211.097V224.879C405.957 226.371 405.603 227.47 404.897 228.177C404.268 228.805 403.208 229.119 401.716 229.119Z" fill="#1C1C1C"/>
<path d="M103.102 190.971L85.8359 234.257H125.521L108.255 190.971C107.327 188.643 104.031 188.643 103.102 190.971Z" fill="#FFCA58" stroke="#323139" stroke-width="2.31873" stroke-miterlimit="10"/>
<path opacity="0.23" d="M87.8883 229.113L85.8359 234.257H125.522L123.47 229.113H87.8883Z" fill="#323139" stroke="#323139" stroke-width="2.31873" stroke-miterlimit="10"/>
<path d="M106.535 195.707L119.604 227.824" stroke="#FFEAA6" stroke-width="2.31873" stroke-miterlimit="10" stroke-linecap="round" stroke-linejoin="round"/>
<path d="M128.388 237.278H82.9709C81.6961 237.278 80.6543 236.235 80.6543 234.962C80.6543 233.687 81.6973 232.645 82.9709 232.645H128.388C129.663 232.645 130.705 233.688 130.705 234.962C130.705 236.235 129.662 237.278 128.388 237.278Z" fill="#FFA166" stroke="#323139" stroke-width="2.31873" stroke-miterlimit="10"/>
<path opacity="0.23" d="M128.388 234.962H82.9709C82.1203 234.962 81.3809 234.491 80.9776 233.803C80.7771 234.146 80.6543 234.537 80.6543 234.962C80.6543 236.236 81.6973 237.278 82.9709 237.278H128.388C129.663 237.278 130.705 236.235 130.705 234.962C130.705 234.539 130.581 234.146 130.38 233.803C129.978 234.491 129.239 234.962 128.388 234.962Z" fill="#323139"/>
<path d="M90.6191 222.262H120.737L115.524 209.193H95.833L90.6191 222.262Z" fill="#323139" stroke="#323139" stroke-width="2.31873" stroke-miterlimit="10"/>
<path d="M112.648 210.732L116.619 220.488" stroke="#76757B" stroke-width="2.31873" stroke-miterlimit="10" stroke-linecap="round" stroke-linejoin="round"/>
<path d="M244.256 214.887H240.994V240.645H244.256V214.887Z" fill="white" stroke="#323139" stroke-width="2.31873" stroke-miterlimit="10" stroke-linecap="round" stroke-linejoin="round"/>
<path opacity="0.57" d="M244.256 214.887H240.994V222.746H244.256V214.887Z" fill="#323139" stroke="#323139" stroke-width="2.31873" stroke-miterlimit="10"/>
<path d="M238.527 240.645H246.725" stroke="#323139" stroke-width="2.31873" stroke-miterlimit="10" stroke-linecap="round" stroke-linejoin="round"/>
<path d="M290.559 214.887H287.297V240.645H290.559V214.887Z" fill="white" stroke="#323139" stroke-width="2.31873" stroke-miterlimit="10" stroke-linecap="round" stroke-linejoin="round"/>
<path opacity="0.57" d="M290.559 214.887H287.297V222.746H290.559V214.887Z" fill="#323139" stroke="#323139" stroke-width="2.31873" stroke-miterlimit="10"/>
<path d="M284.828 240.645H293.026" stroke="#323139" stroke-width="2.31873" stroke-miterlimit="10" stroke-linecap="round" stroke-linejoin="round"/>
<path d="M302.71 215.89H228.851C227.678 215.89 226.727 214.939 226.727 213.767V200.854C226.727 199.681 227.677 198.731 228.851 198.731H302.71C303.883 198.731 304.833 199.681 304.833 200.854V213.767C304.833 214.939 303.883 215.89 302.71 215.89Z" fill="#FFA166" stroke="#323139" stroke-width="2.31873" stroke-miterlimit="10"/>
<path opacity="0.23" d="M302.71 207.31H228.851C227.678 207.31 226.727 206.36 226.727 205.187V213.766C226.727 214.939 227.678 215.889 228.851 215.889H302.71C303.883 215.889 304.833 214.939 304.833 213.766V205.187C304.833 206.36 303.883 207.31 302.71 207.31Z" fill="#323139" stroke="#323139" stroke-width="2.31873" stroke-miterlimit="10"/>
<path d="M230.619 215.89H235.332L241.132 198.731H236.419L230.619 215.89Z" fill="#323139" stroke="#323139" stroke-width="2.31873" stroke-miterlimit="10"/>
<path d="M242.58 215.89H247.293L253.092 198.731H248.38L242.58 215.89Z" fill="#323139" stroke="#323139" stroke-width="2.31873" stroke-miterlimit="10"/>
<path d="M254.545 215.89H259.258L265.057 198.731H260.345L254.545 215.89Z" fill="#323139" stroke="#323139" stroke-width="2.31873" stroke-miterlimit="10"/>
<path d="M266.506 215.89H271.218L277.018 198.731H272.305L266.506 215.89Z" fill="#323139" stroke="#323139" stroke-width="2.31873" stroke-miterlimit="10"/>
<path d="M278.469 215.89H283.181L288.981 198.731H284.268L278.469 215.89Z" fill="#323139" stroke="#323139" stroke-width="2.31873" stroke-miterlimit="10"/>
<path d="M290.43 215.89H295.142L300.942 198.731H296.229L290.43 215.89Z" fill="#323139" stroke="#323139" stroke-width="2.31873" stroke-miterlimit="10"/>
<path opacity="0.42" d="M231.711 201.813H299.852" stroke="#FFEAA6" stroke-width="2.31873" stroke-miterlimit="10" stroke-linecap="round" stroke-linejoin="round"/>
<path d="M128.128 198.208L110.861 241.494H150.547L133.28 198.208C132.353 195.88 129.057 195.88 128.128 198.208Z" fill="#FFCA58" stroke="#323139" stroke-width="2.31873" stroke-miterlimit="10"/>
<path opacity="0.23" d="M112.914 236.35L110.861 241.493H150.548L148.495 236.35H112.914Z" fill="#323139" stroke="#323139" stroke-width="2.31873" stroke-miterlimit="10"/>
<path d="M131.561 202.944L144.629 235.061" stroke="#FFEAA6" stroke-width="2.31873" stroke-miterlimit="10" stroke-linecap="round" stroke-linejoin="round"/>
<path d="M153.414 244.515H107.996C106.722 244.515 105.68 243.472 105.68 242.198C105.68 240.925 106.723 239.882 107.996 239.882H153.414C154.688 239.882 155.73 240.925 155.73 242.198C155.73 243.472 154.687 244.515 153.414 244.515Z" fill="#FFA166" stroke="#323139" stroke-width="2.31873" stroke-miterlimit="10"/>
<path opacity="0.23" d="M153.414 242.197H107.996C107.146 242.197 106.406 241.727 106.003 241.039C105.803 241.382 105.68 241.773 105.68 242.197C105.68 243.472 106.723 244.514 107.996 244.514H153.414C154.688 244.514 155.73 243.471 155.73 242.197C155.73 241.774 155.607 241.382 155.407 241.039C155.004 241.728 154.264 242.197 153.414 242.197Z" fill="#323139"/>
<path d="M115.645 229.5H145.762L140.548 216.431H120.857L115.645 229.5Z" fill="#323139" stroke="#323139" stroke-width="2.31873" stroke-miterlimit="10"/>
<path d="M137.676 217.968L141.645 227.725" stroke="#76757B" stroke-width="2.31873" stroke-miterlimit="10" stroke-linecap="round" stroke-linejoin="round"/>
<path d="M342.033 237.73H368.979" stroke="#323139" stroke-width="2.31873" stroke-miterlimit="10" stroke-linecap="round" stroke-linejoin="round"/>
<path d="M358.971 242.138H365.141" stroke="#323139" stroke-width="2.31873" stroke-miterlimit="10" stroke-linecap="round" stroke-linejoin="round"/>
<path d="M240.996 245.77H244.258" stroke="#323139" stroke-width="2.31873" stroke-miterlimit="10" stroke-linecap="round" stroke-linejoin="round"/>
<path d="M213.076 238.736H230.375" stroke="#323139" stroke-width="2.31873" stroke-miterlimit="10" stroke-linecap="round" stroke-linejoin="round"/>
<path d="M299.85 235.847H310.295" stroke="#323139" stroke-width="2.31873" stroke-miterlimit="10" stroke-linecap="round" stroke-linejoin="round"/>
<path d="M204.607 238.736H198.447" stroke="#323139" stroke-width="2.31873" stroke-miterlimit="10" stroke-linecap="round" stroke-linejoin="round"/>
<path d="M120.736 250.314H145.763" stroke="#323139" stroke-width="2.31873" stroke-miterlimit="10" stroke-linecap="round" stroke-linejoin="round"/>
<path d="M86.7422 244.516H92.5564" stroke="#323139" stroke-width="2.31873" stroke-miterlimit="10" stroke-linecap="round" stroke-linejoin="round"/>
<path d="M91.2188 178.759H112.051" stroke="#323139" stroke-width="2.31873" stroke-miterlimit="10" stroke-linecap="round" stroke-linejoin="round"/>
<path d="M198.447 204.556H218.85" stroke="#323139" stroke-width="2.31873" stroke-miterlimit="10" stroke-linecap="round" stroke-linejoin="round"/>
<path d="M201.527 196.933H208.649" stroke="#323139" stroke-width="2.31873" stroke-miterlimit="10" stroke-linecap="round" stroke-linejoin="round"/>
<path d="M317.686 190.808H295.686" stroke="#323139" stroke-width="2.31873" stroke-miterlimit="10" stroke-linecap="round" stroke-linejoin="round"/>
<path d="M317.686 184.649H306.686" stroke="#323139" stroke-width="2.31873" stroke-miterlimit="10" stroke-linecap="round" stroke-linejoin="round"/>
<path d="M329.328 179.226H342.032" stroke="#323139" stroke-width="2.31873" stroke-miterlimit="10" stroke-linecap="round" stroke-linejoin="round"/>
<path d="M332.023 185.77H338.183" stroke="#323139" stroke-width="2.31873" stroke-miterlimit="10" stroke-linecap="round" stroke-linejoin="round"/>
<path d="M308.545 106.856H338.186" stroke="#323139" stroke-width="2.31873" stroke-miterlimit="10" stroke-linecap="round" stroke-linejoin="round"/>
<path d="M312.008 112.245H323.364" stroke="#323139" stroke-width="2.31873" stroke-miterlimit="10" stroke-linecap="round" stroke-linejoin="round"/>
<path d="M221.727 81.0649H237.794" stroke="#323139" stroke-width="2.31873" stroke-miterlimit="10" stroke-linecap="round" stroke-linejoin="round"/>
<path d="M226.727 87.9927H231.398" stroke="#323139" stroke-width="2.31873" stroke-miterlimit="10" stroke-linecap="round" stroke-linejoin="round"/>
<path d="M177.658 57.5815H192.286" stroke="#323139" stroke-width="2.31873" stroke-miterlimit="10" stroke-linecap="round" stroke-linejoin="round"/>
<path d="M181.51 64.5107H184.974" stroke="#323139" stroke-width="2.31873" stroke-miterlimit="10" stroke-linecap="round" stroke-linejoin="round"/>
<path d="M104.189 91.8423H123.802" stroke="#323139" stroke-width="2.31873" stroke-miterlimit="10" stroke-linecap="round" stroke-linejoin="round"/>
<path d="M109.457 98.002H117.995" stroke="#323139" stroke-width="2.31873" stroke-miterlimit="10" stroke-linecap="round" stroke-linejoin="round"/>
<path d="M399.008 59.5068H382.836" stroke="#323139" stroke-width="2.31873" stroke-miterlimit="10" stroke-linecap="round" stroke-linejoin="round"/>
<path d="M396.387 64.5107H387.734" stroke="#323139" stroke-width="2.31873" stroke-miterlimit="10" stroke-linecap="round" stroke-linejoin="round"/>
<path d="M287.297 245.77H290.559" stroke="#323139" stroke-width="2.31873" stroke-miterlimit="10" stroke-linecap="round" stroke-linejoin="round"/>
<path d="M103.123 171.392H123.637" stroke="#323139" stroke-width="2.31873" stroke-miterlimit="10" stroke-linecap="round" stroke-linejoin="round"/>
<path d="M374.717 194.492H395.548" stroke="#323139" stroke-width="2.31873" stroke-miterlimit="10" stroke-linecap="round" stroke-linejoin="round"/>
<path d="M382.77 189.13H403.283" stroke="#323139" stroke-width="2.31873" stroke-miterlimit="10" stroke-linecap="round" stroke-linejoin="round"/>
<path d="M410.816 152.199H406.963V239.406H410.816V152.199Z" fill="white" stroke="#323139" stroke-width="2.31873" stroke-miterlimit="10" stroke-linecap="round" stroke-linejoin="round"/>
<path opacity="0.57" d="M410.816 152.199H406.963V161.482H410.816V152.199Z" fill="#323139" stroke="#323139" stroke-width="2.31873" stroke-miterlimit="10"/>
<path d="M404.047 239.406H413.731" stroke="#323139" stroke-width="2.31873" stroke-miterlimit="10" stroke-linecap="round" stroke-linejoin="round"/>
<path d="M439.268 127.76L414.964 152.065C411.609 155.42 406.17 155.42 402.815 152.065L378.51 127.76C375.155 124.405 375.155 118.967 378.51 115.612L402.815 91.3073C406.17 87.9523 411.609 87.9523 414.964 91.3073L439.268 115.612C442.623 118.966 442.623 124.405 439.268 127.76Z" fill="#FFA166" stroke="#323139" stroke-width="2.31873" stroke-miterlimit="10"/>
<path d="M432.132 126.333L413.536 144.929C410.969 147.496 406.807 147.496 404.242 144.929L385.646 126.333C383.079 123.766 383.079 119.604 385.646 117.039L404.242 98.4428C406.809 95.8758 410.97 95.8758 413.536 98.4428L432.132 117.039C434.699 119.604 434.699 123.766 432.132 126.333Z" fill="#FFA166"/>
<path d="M432.132 126.333L413.536 144.929C410.969 147.496 406.807 147.496 404.242 144.929L385.646 126.333C383.079 123.766 383.079 119.604 385.646 117.039L404.242 98.4428C406.809 95.8758 410.97 95.8758 413.536 98.4428L432.132 117.039C434.699 119.604 434.699 123.766 432.132 126.333Z" stroke="#323139" stroke-width="2.31861" stroke-linecap="round" stroke-linejoin="round" stroke-dasharray="5.32 4.44"/>
<path opacity="0.23" d="M439.269 116.52L414.965 140.825C411.61 144.18 406.171 144.18 402.816 140.825L378.512 116.52C378.37 116.379 378.269 116.214 378.14 116.066C375.197 119.441 375.298 124.547 378.512 127.76L402.816 152.065C406.171 155.42 411.61 155.42 414.965 152.065L439.269 127.76C442.483 124.547 442.584 119.441 439.641 116.066C439.511 116.214 439.411 116.379 439.269 116.52Z" fill="#323139" stroke="#323139" stroke-width="2.31873" stroke-miterlimit="10"/>
<path d="M411.536 122.872H406.595C406.191 122.872 405.893 122.787 405.702 122.617C405.532 122.426 405.436 122.128 405.415 121.724L404.937 109.419C404.916 109.016 404.99 108.729 405.16 108.559C405.33 108.367 405.617 108.272 406.021 108.272H412.11C412.513 108.272 412.8 108.367 412.97 108.559C413.14 108.729 413.215 109.016 413.193 109.419L412.747 121.724C412.726 122.128 412.62 122.426 412.428 122.617C412.237 122.787 411.939 122.872 411.536 122.872ZM412.014 131.224H406.148C405.744 131.224 405.447 131.139 405.256 130.969C405.086 130.778 405.001 130.48 405.001 130.077V125.9C405.001 125.497 405.086 125.21 405.256 125.04C405.447 124.848 405.744 124.753 406.148 124.753H412.014C412.418 124.753 412.705 124.848 412.875 125.04C413.066 125.21 413.161 125.497 413.161 125.9V130.077C413.161 130.48 413.066 130.778 412.875 130.969C412.705 131.139 412.418 131.224 412.014 131.224Z" fill="#323139"/>
<path d="M268.189 36.2015C265.246 25.0552 253.905 18.2861 242.672 21.0593C231.439 23.8326 224.552 35.1017 227.134 46.3373L268.189 36.2015Z" fill="#FFCA58" stroke="#323139" stroke-width="2.35338" stroke-miterlimit="10"/>
<path d="M240.82 40.019L236.096 25.5374C235.421 22.8001 237.107 20.0083 239.844 19.3326L244.371 18.2154C247.108 17.5398 249.9 19.226 250.576 21.9633L253.134 36.9804" fill="#FFCA58"/>
<path d="M240.82 40.019L236.096 25.5374C235.421 22.8001 237.107 20.0083 239.844 19.3326L244.371 18.2154C247.108 17.5398 249.9 19.226 250.576 21.9633L253.134 36.9804" stroke="#323139" stroke-width="2.35338" stroke-miterlimit="10" stroke-linecap="round" stroke-linejoin="round"/>
<path opacity="0.23" d="M227.146 36.8994C226.457 39.9172 226.398 43.125 227.136 46.3363L268.191 36.2017C267.35 33.0159 265.805 30.2033 263.791 27.853L227.146 36.8994Z" fill="#323139"/>
<path d="M269.574 39.1841L227.297 49.6211C225.572 50.0465 223.814 48.9849 223.389 47.2605C222.963 45.536 224.025 43.778 225.749 43.3526L268.027 32.9156C269.752 32.4903 271.51 33.5518 271.935 35.2763C272.362 37.0007 271.299 38.7588 269.574 39.1841Z" fill="#FFA166" stroke="#323139" stroke-width="2.35338" stroke-miterlimit="10"/>
<path opacity="0.23" d="M268.711 35.6859L226.433 46.123C225.356 46.3884 224.265 46.0743 223.494 45.379C223.279 45.963 223.229 46.6143 223.389 47.261C223.814 48.9855 225.573 50.047 227.297 49.6217L269.575 39.1846C271.299 38.7593 272.361 37.0001 271.935 35.2768C271.775 34.6302 271.429 34.0774 270.966 33.6602C270.607 34.6336 269.789 35.4205 268.711 35.6859Z" fill="#323139"/>
</svg>
